<svg xmlns="http://www.w3.org/2000/svg" x="0px" y="0px"
width="100" height="100"
viewBox="0 0 172 172"
style=" fill:#000000;"><g fill="none" fill-rule="nonzero" stroke="none" stroke-width="1" stroke-linecap="butt" stroke-linejoin="miter" stroke-miterlimit="10" stroke-dasharray="" stroke-dashoffset="0" font-family="none" font-weight="none" font-size="none" text-anchor="none" style="mix-blend-mode: normal"><path d="M0,172v-172h172v172z" fill="none"></path><g fill="#32e0c4"><path d="M64.5,21.5v83.3125c0,0 -20.32422,-13.66146 -23.96354,-13.66146c-9.37826,0 -11.86979,9.85417 -11.86979,9.85417l36.05729,47.47917c4.33919,5.71094 11.19792,9.18229 18.36458,9.18229h31.57813c15.84506,0 28.66667,-12.82161 28.66667,-28.66667v-93.16667h-14.33333v50.16667c0,7.92253 -6.41081,14.33333 -14.33333,14.33333c-4.31119,0 -8.11849,-1.90365 -10.75,-4.92708c-2.63151,3.02344 -6.4388,4.92708 -10.75,4.92708c-7.92253,0 -14.33333,-6.41081 -14.33333,-14.33333v-64.5zM86,57.33333v28.66667c0,3.94726 3.2194,7.16667 7.16667,7.16667c3.94726,0 7.16667,-3.2194 7.16667,-7.16667v-28.66667zM107.5,57.33333v28.66667c0,3.94726 3.2194,7.16667 7.16667,7.16667c3.94726,0 7.16667,-3.2194 7.16667,-7.16667v-28.66667z"></path></g></g></svg>